<svg width="1200" height="630" viewBox="0 0 1200 630" fill="none" xmlns="http://www.w3.org/2000/svg">
  <rect width="1200" height="630" rx="36" fill="url(#bg)"/>
  <rect x="64" y="64" width="1072" height="502" rx="28" fill="#FFFFFF" fill-opacity="0.95"/>
  <rect x="104" y="110" width="256" height="42" rx="21" fill="#F8EEE4"/>
  <text x="232" y="137" text-anchor="middle" font-family="Arial, Helvetica, sans-serif" font-size="20" font-weight="700" fill="#8A5A2B">Riddra Regulatory</text>
  <text x="104" y="236" font-family="Arial, Helvetica, sans-serif" font-size="56" font-weight="700" fill="#26364F">Regulatory update</text>
  <text x="104" y="290" font-family="Arial, Helvetica, sans-serif" font-size="28" fill="#70819B">Exchange and regulator notices will use this fallback when the source provides no usable image.</text>
  <rect x="104" y="362" width="470" height="18" rx="9" fill="#F3E8DC"/>
  <rect x="104" y="402" width="412" height="18" rx="9" fill="#F3E8DC"/>
  <rect x="104" y="442" width="340" height="18" rx="9" fill="#F3E8DC"/>
  <rect x="812" y="170" width="244" height="222" rx="24" fill="#FBF5EE"/>
  <rect x="854" y="214" width="160" height="26" rx="8" fill="#D8B18A"/>
  <rect x="854" y="258" width="160" height="26" rx="8" fill="#E8CEB2"/>
  <rect x="854" y="302" width="122" height="26" rx="8" fill="#E8CEB2"/>
  <defs>
    <linearGradient id="bg" x1="0" y1="0" x2="1200" y2="630" gradientUnits="userSpaceOnUse">
      <stop stop-color="#F8EFE7"/>
      <stop offset="1" stop-color="#FCF7F2"/>
    </linearGradient>
  </defs>
</svg>
